<svg xmlns="http://www.w3.org/2000/svg" width="18.695" height="21.366" viewBox="0 0 18.695 21.366">
  <path id="file" d="M22.314,6.708a18.922,18.922,0,0,0-1.819-2.08,18.924,18.924,0,0,0-2.08-1.819,3.328,3.328,0,0,0-1.9-.88H6.168A1.671,1.671,0,0,0,4.5,3.6V21.625a1.671,1.671,0,0,0,1.669,1.669H21.525a1.671,1.671,0,0,0,1.669-1.669V8.6a3.328,3.328,0,0,0-.88-1.9ZM19.55,5.572a18.212,18.212,0,0,1,1.514,1.7H17.853V4.057a18.194,18.194,0,0,1,1.7,1.514Zm2.308,16.053a.338.338,0,0,1-.334.334H6.168a.338.338,0,0,1-.334-.334V3.6a.338.338,0,0,1,.334-.334H16.517V7.937a.668.668,0,0,0,.668.668h4.674ZM18.52,19.288H9.173a.668.668,0,1,1,0-1.335H18.52a.668.668,0,1,1,0,1.335Zm0-2.671H9.173a.668.668,0,1,1,0-1.335H18.52a.668.668,0,1,1,0,1.335Zm0-2.671H9.173a.668.668,0,1,1,0-1.335H18.52a.668.668,0,0,1,0,1.335Z" transform="translate(-4.499 -1.928)" fill="#999"/>
</svg>
