<svg xmlns="http://www.w3.org/2000/svg" width="113.723" height="85.574" viewBox="0 0 113.723 85.574">
  <g id="logo_white" transform="translate(523.011 -64.05)">
    <path id="Path_1" data-name="Path 1" d="M-449.2,92.563a7.3,7.3,0,0,0-7.295,7.293,7.294,7.294,0,0,0,7.295,7.292,7.293,7.293,0,0,0,7.292-7.292,7.293,7.293,0,0,0-7.292-7.293" transform="translate(32.614 13.98)" fill="#ee3226"/>
    <path id="Path_2" data-name="Path 2" d="M-515.719,64.72a7.292,7.292,0,0,0-7.292,7.292,7.291,7.291,0,0,0,7.292,7.292,7.292,7.292,0,0,0,7.293-7.292,7.293,7.293,0,0,0-7.293-7.292" transform="translate(0 0.328)" fill="#ee3226"/>
    <rect id="Rectangle_1" data-name="Rectangle 1" width="113.723" height="85.574" transform="translate(-523.011 64.05)" fill="none"/>
    <rect id="Rectangle_2" data-name="Rectangle 2" width="11.191" height="36.183" transform="translate(-521.315 84.675)" fill="#fff"/>
    <path id="Path_3" data-name="Path 3" d="M-466.08,109.982a7.292,7.292,0,0,1-7.291-7.294A7.29,7.29,0,0,1-466.08,95.4a7.292,7.292,0,0,1,7.293,7.291,7.293,7.293,0,0,1-7.293,7.294m14.249-20.03a16.484,16.484,0,0,0-12.025-5.294,16.268,16.268,0,0,0-9.505,3.088v-23.7h-11.191V120.86h11.191v-3.14a16.264,16.264,0,0,0,9.5,3.089h.007a16.491,16.491,0,0,0,12.025-5.3,18.627,18.627,0,0,0,4.979-12.781,18.63,18.63,0,0,0-4.979-12.781" transform="translate(18.856 0)" fill="#fff"/>
    <path id="Path_4" data-name="Path 4" d="M-493.1,103.2a7.292,7.292,0,0,1-7.29-7.294,7.29,7.29,0,0,1,7.29-7.292,7.292,7.292,0,0,1,7.3,7.292,7.294,7.294,0,0,1-7.3,7.294m7.311-25.307V81a16.229,16.229,0,0,0-9.532-3.119,16.457,16.457,0,0,0-12.007,5.3A18.641,18.641,0,0,0-512.3,95.954a18.637,18.637,0,0,0,4.973,12.779,16.447,16.447,0,0,0,12.007,5.3h.009a16.215,16.215,0,0,0,9.523-3.119v3.168H-474.6V77.9Z" transform="translate(5.252 6.78)" fill="#fff"/>
    <path id="Path_5" data-name="Path 5" d="M-506.2,110.745v16.17h-2.688v-2.65a6.583,6.583,0,0,1-5.416,2.65c-4.393,0-7.574-3.52-7.574-8.368,0-4.735,3.18-8.182,7.5-8.182a6.684,6.684,0,0,1,5.492,2.614v-2.234h2.688m-12.913,7.763c0,3.447,2.16,5.946,5.15,5.946,3.106,0,5.264-2.423,5.264-5.87,0-3.408-2.158-5.757-5.226-5.757-2.954,0-5.188,2.462-5.188,5.681" transform="translate(0.558 22.708)" fill="#ee3226"/>
    <path id="Path_6" data-name="Path 6" d="M-506.045,119.785a6.3,6.3,0,0,0,.492,2.954,3.39,3.39,0,0,0,3.069,1.59,3.365,3.365,0,0,0,3.028-1.59,6.276,6.276,0,0,0,.493-2.954V110.62h2.689v9.468c0,2.31-.379,3.56-1.44,4.733a6.217,6.217,0,0,1-4.77,1.97,6.25,6.25,0,0,1-4.811-1.97c-1.06-1.173-1.438-2.423-1.438-4.733V110.62h2.689v9.165" transform="translate(7 22.833)" fill="#ee3226"/>
    <path id="Path_7" data-name="Path 7" d="M-490.907,114.406a2.416,2.416,0,0,0-2.2-1.553A1.848,1.848,0,0,0-495,114.6c0,.909.53,1.4,2.536,2.234a12.121,12.121,0,0,1,2.993,1.516,4.053,4.053,0,0,1,1.742,3.446A5.133,5.133,0,0,1-493.1,126.9c-2.612,0-4.468-1.364-5.49-4.015l2.386-.985c.908,1.894,1.666,2.538,3.143,2.538a2.461,2.461,0,0,0,2.575-2.462c0-1.212-.568-1.779-2.538-2.614-3.635-1.59-4.544-2.5-4.544-4.581a4.394,4.394,0,0,1,4.581-4.393,4.564,4.564,0,0,1,4.317,2.84l-2.234,1.174" transform="translate(11.972 22.721)" fill="#ee3226"/>
    <path id="Path_8" data-name="Path 8" d="M-486.043,128.659h-2.689v-13.67h-1.629v-2.5h1.629v-5.681h2.689v5.681h2.8v2.5h-2.8Z" transform="translate(16.008 20.964)" fill="#ee3226"/>
    <path id="Path_9" data-name="Path 9" d="M-481.8,110.745v1.7c1.4-1.666,2.083-2.083,3.56-2.083a4.271,4.271,0,0,1,2.386.683l-1.25,2.425a2.641,2.641,0,0,0-1.59-.531,2.863,2.863,0,0,0-2.5,1.44,8.048,8.048,0,0,0-.607,3.785v8.748h-2.688v-16.17h2.688" transform="translate(18.886 22.708)" fill="#ee3226"/>
    <path id="Path_10" data-name="Path 10" d="M-462.891,110.745v16.17h-2.688v-2.65a6.585,6.585,0,0,1-5.416,2.65c-4.393,0-7.574-3.52-7.574-8.368,0-4.735,3.18-8.182,7.5-8.182a6.684,6.684,0,0,1,5.492,2.614v-2.234h2.688m-12.913,7.763c0,3.447,2.158,5.946,5.15,5.946,3.106,0,5.264-2.423,5.264-5.87,0-3.408-2.158-5.757-5.226-5.757-2.954,0-5.188,2.462-5.188,5.681" transform="translate(21.79 22.708)" fill="#ee3226"/>
    <rect id="Rectangle_3" data-name="Rectangle 3" width="2.688" height="28.062" transform="translate(-437.2 121.561)" fill="#ee3226"/>
    <path id="Path_11" data-name="Path 11" d="M-457.5,107.266a1.94,1.94,0,0,1-1.931,1.931,1.947,1.947,0,0,1-1.931-1.97,1.932,1.932,0,0,1,1.931-1.893,1.941,1.941,0,0,1,1.931,1.931m-3.3,5.946h2.689v16.17H-460.8Z" transform="translate(30.225 20.242)" fill="#ee3226"/>
    <path id="Path_12" data-name="Path 12" d="M-441.545,110.745v16.17h-2.688v-2.65a6.585,6.585,0,0,1-5.416,2.65c-4.393,0-7.574-3.52-7.574-8.368,0-4.735,3.18-8.182,7.5-8.182a6.684,6.684,0,0,1,5.492,2.614v-2.234h2.688m-12.913,7.763c0,3.447,2.159,5.946,5.15,5.946,3.1,0,5.264-2.423,5.264-5.87,0-3.408-2.159-5.757-5.226-5.757-2.954,0-5.188,2.462-5.188,5.681" transform="translate(32.255 22.708)" fill="#ee3226"/>
  </g>
</svg>
