<svg xmlns="http://www.w3.org/2000/svg" width="32.152" height="32.152" viewBox="0 0 32.152 32.152">
  <path id="rss" d="M9.192,29.806a4.6,4.6,0,1,1-4.6-4.6A4.6,4.6,0,0,1,9.192,29.806ZM21.8,33.2A21.823,21.823,0,0,0,1.205,12.6,1.147,1.147,0,0,0,0,13.751V17.2a1.149,1.149,0,0,0,1.068,1.15A16.081,16.081,0,0,1,16.052,33.334,1.149,1.149,0,0,0,17.2,34.4h3.45A1.147,1.147,0,0,0,21.8,33.2Zm10.353.021A32.175,32.175,0,0,0,1.184,2.251,1.147,1.147,0,0,0,0,3.4v3.45A1.152,1.152,0,0,0,1.109,8a26.415,26.415,0,0,1,25.3,25.3A1.152,1.152,0,0,0,27.553,34.4H31A1.147,1.147,0,0,0,32.152,33.218Z" transform="translate(0 -2.25)" fill="#fff"/>
</svg>
