<svg xmlns="http://www.w3.org/2000/svg" width="37" height="37" viewBox="0 0 37 37">
  <g id="share_twitter" transform="translate(-403 -1801)">
    <path id="Icon_awesome-twitter" data-name="Icon awesome-twitter" d="M15.119,6.792c.011.15.011.3.011.449A9.759,9.759,0,0,1,5.3,17.067,9.759,9.759,0,0,1,0,15.516a7.144,7.144,0,0,0,.834.043,6.916,6.916,0,0,0,4.288-1.476,3.46,3.46,0,0,1-3.229-2.4,4.355,4.355,0,0,0,.652.053,3.653,3.653,0,0,0,.909-.118A3.454,3.454,0,0,1,.684,8.235V8.192a3.478,3.478,0,0,0,1.561.438A3.459,3.459,0,0,1,1.176,4.012,9.817,9.817,0,0,0,8.3,7.626a3.9,3.9,0,0,1-.086-.791,3.457,3.457,0,0,1,5.977-2.363,6.8,6.8,0,0,0,2.192-.834,3.444,3.444,0,0,1-1.518,1.9,6.923,6.923,0,0,0,1.989-.535,7.424,7.424,0,0,1-1.732,1.786Z" transform="translate(414 1809.619)" fill="#cecece"/>
    <g id="Ellipse_6" data-name="Ellipse 6" transform="translate(403 1801)" fill="none" stroke="#cecece" stroke-width="2">
      <circle cx="18.5" cy="18.5" r="18.5" stroke="none"/>
      <circle cx="18.5" cy="18.5" r="17.5" fill="none"/>
    </g>
  </g>
</svg>
