<svg xmlns="http://www.w3.org/2000/svg" width="37" height="37" viewBox="0 0 37 37">
  <g id="share_linkedin" transform="translate(-403 -1852)">
    <path id="Icon_awesome-linkedin-in" data-name="Icon awesome-linkedin-in" d="M3.516,15.709H.259V5.221H3.516ZM1.886,3.791a1.9,1.9,0,1,1,1.886-1.9A1.9,1.9,0,0,1,1.886,3.791ZM15.705,15.709h-3.25V10.6c0-1.217-.025-2.777-1.693-2.777-1.693,0-1.953,1.322-1.953,2.689v5.193H5.556V5.221H8.68V6.652h.046a3.422,3.422,0,0,1,3.081-1.694c3.3,0,3.9,2.17,3.9,4.99v5.761Z" transform="translate(414 1861.33)" fill="#cecece"/>
    <g id="Ellipse_7" data-name="Ellipse 7" transform="translate(403 1852)" fill="none" stroke="#cecece" stroke-width="2">
      <circle cx="18.5" cy="18.5" r="18.5" stroke="none"/>
      <circle cx="18.5" cy="18.5" r="17.5" fill="none"/>
    </g>
  </g>
</svg>
