<svg xmlns="http://www.w3.org/2000/svg" width="35.05" height="28.467" viewBox="0 0 35.05 28.467">
  <path id="twitter" d="M31.447,10.475c.022.311.022.623.022.934,0,9.5-7.228,20.439-20.439,20.439A20.3,20.3,0,0,1,0,28.623a14.86,14.86,0,0,0,1.735.089,14.386,14.386,0,0,0,8.918-3.069,7.2,7.2,0,0,1-6.717-4.982,9.059,9.059,0,0,0,1.357.111,7.6,7.6,0,0,0,1.89-.245,7.184,7.184,0,0,1-5.76-7.05v-.089A7.235,7.235,0,0,0,4.67,14.3,7.194,7.194,0,0,1,2.446,4.693,20.419,20.419,0,0,0,17.258,12.21a8.109,8.109,0,0,1-.178-1.646A7.19,7.19,0,0,1,29.512,5.649a14.143,14.143,0,0,0,4.559-1.735,7.164,7.164,0,0,1-3.158,3.959A14.4,14.4,0,0,0,35.05,6.761a15.442,15.442,0,0,1-3.6,3.714Z" transform="translate(0 -3.381)" fill="#fff"/>
</svg>
