<svg xmlns="http://www.w3.org/2000/svg" width="31.383" height="31.383" viewBox="0 0 31.383 31.383">
  <path id="user_red" d="M15.691.563A15.691,15.691,0,1,0,31.383,16.254,15.689,15.689,0,0,0,15.691.563Zm0,6.074A5.568,5.568,0,1,1,10.123,12.2,5.568,5.568,0,0,1,15.691,6.637Zm0,21.765a12.125,12.125,0,0,1-9.269-4.315A7.054,7.054,0,0,1,12.654,20.3a1.548,1.548,0,0,1,.449.07,8.377,8.377,0,0,0,2.588.437,8.345,8.345,0,0,0,2.588-.437,1.548,1.548,0,0,1,.449-.07,7.054,7.054,0,0,1,6.232,3.784A12.125,12.125,0,0,1,15.691,28.4Z" transform="translate(0 -0.563)" fill="#ee3226"/>
</svg>
