<svg xmlns="http://www.w3.org/2000/svg" width="35.576" height="26.687" viewBox="0 0 35.576 26.687">
  <path id="youtube" d="M35.345,10.393A5.4,5.4,0,0,0,30.2,4.75c-3.85-.181-7.776-.25-11.786-.25H17.165c-4,0-7.936.069-11.786.25A5.414,5.414,0,0,0,.243,10.407C.069,12.881-.007,15.355,0,17.829s.069,4.948.236,7.429a5.42,5.42,0,0,0,5.136,5.664c4.045.188,8.193.271,12.412.264q6.338.021,12.412-.264a5.421,5.421,0,0,0,5.143-5.664c.167-2.481.243-4.955.236-7.436Q35.6,14.111,35.345,10.393ZM14.385,24.646V10.991l10.077,6.824Z" transform="translate(0 -4.5)" fill="#fff"/>
</svg>
